<mxfile host="app.diagrams.net" modified="2021-01-22T20:13:08.537Z" agent="5.0 (Macintosh; Intel Mac OS X 10_14_6) AppleWebKit/537.36 (KHTML, like Gecko) Chrome/88.0.4324.96 Safari/537.36" etag="h_w6zgElKp8E0PXPFY7C" version="14.2.4" type="github">
  <diagram id="Q9qDFViIi6g_7l0wx6bQ" name="Page-1">
    <mxGraphModel dx="2131" dy="1491" grid="1" gridSize="10" guides="1" tooltips="1" connect="1" arrows="1" fold="1" page="1" pageScale="1" pageWidth="1100" pageHeight="850" math="0" shadow="0">
      <root>
        <mxCell id="0" />
        <mxCell id="1" parent="0" />
        <mxCell id="W36dBCYrXXzjvsI2Zu5R-28" style="edgeStyle=orthogonalEdgeStyle;rounded=0;orthogonalLoop=1;jettySize=auto;html=1;exitX=1;exitY=0.5;exitDx=0;exitDy=0;" edge="1" parent="1" source="6pZVVGDxnzAvVJNCNEGO-1" target="W36dBCYrXXzjvsI2Zu5R-27">
          <mxGeometry relative="1" as="geometry" />
        </mxCell>
        <mxCell id="6pZVVGDxnzAvVJNCNEGO-1" value="" style="aspect=fixed;perimeter=ellipsePerimeter;html=1;align=center;shadow=0;dashed=0;spacingTop=3;image;image=img/lib/active_directory/user.svg;" parent="1" vertex="1">
          <mxGeometry x="151" y="580" width="30" height="81.08" as="geometry" />
        </mxCell>
        <mxCell id="6pZVVGDxnzAvVJNCNEGO-4" value="Evento: Se envió pedido" style="points=[[0,0],[0.25,0],[0.5,0],[0.75,0],[1,0],[1,0.25],[1,0.5],[1,0.75],[1,1],[0.75,1],[0.5,1],[0.25,1],[0,1],[0,0.75],[0,0.5],[0,0.25]];outlineConnect=0;gradientColor=none;html=1;whiteSpace=wrap;fontSize=12;fontStyle=0;shape=mxgraph.aws4.group;grIcon=mxgraph.aws4.group_aws_step_functions_workflow;strokeColor=#CD2264;fillColor=none;verticalAlign=top;align=left;spacingLeft=30;fontColor=#CD2264;dashed=0;" parent="1" vertex="1">
          <mxGeometry x="75" y="760" width="706" height="700" as="geometry" />
        </mxCell>
        <mxCell id="W36dBCYrXXzjvsI2Zu5R-9" value="" style="edgeStyle=none;rounded=0;orthogonalLoop=1;jettySize=auto;html=1;" edge="1" parent="1" source="6pZVVGDxnzAvVJNCNEGO-5" target="6pZVVGDxnzAvVJNCNEGO-6">
          <mxGeometry relative="1" as="geometry" />
        </mxCell>
        <mxCell id="6pZVVGDxnzAvVJNCNEGO-5" value="Inicio" style="ellipse;whiteSpace=wrap;html=1;aspect=fixed;" parent="1" vertex="1">
          <mxGeometry x="281" y="800" width="80" height="80" as="geometry" />
        </mxCell>
        <mxCell id="W36dBCYrXXzjvsI2Zu5R-11" style="edgeStyle=none;rounded=0;orthogonalLoop=1;jettySize=auto;html=1;exitX=1;exitY=0.5;exitDx=0;exitDy=0;entryX=0;entryY=0.5;entryDx=0;entryDy=0;" edge="1" parent="1" source="6pZVVGDxnzAvVJNCNEGO-6" target="W36dBCYrXXzjvsI2Zu5R-4">
          <mxGeometry relative="1" as="geometry" />
        </mxCell>
        <mxCell id="W36dBCYrXXzjvsI2Zu5R-17" style="edgeStyle=orthogonalEdgeStyle;rounded=0;orthogonalLoop=1;jettySize=auto;html=1;exitX=0.5;exitY=1;exitDx=0;exitDy=0;entryX=0.5;entryY=0;entryDx=0;entryDy=0;" edge="1" parent="1" source="6pZVVGDxnzAvVJNCNEGO-6" target="6pZVVGDxnzAvVJNCNEGO-10">
          <mxGeometry relative="1" as="geometry" />
        </mxCell>
        <mxCell id="6pZVVGDxnzAvVJNCNEGO-6" value="Fincar pedido en bd" style="rounded=1;whiteSpace=wrap;html=1;dashed=1;" parent="1" vertex="1">
          <mxGeometry x="261" y="920" width="120" height="60" as="geometry" />
        </mxCell>
        <mxCell id="6pZVVGDxnzAvVJNCNEGO-9" value="" style="outlineConnect=0;fontColor=#232F3E;gradientColor=none;fillColor=#3334B9;strokeColor=none;dashed=0;verticalLabelPosition=bottom;verticalAlign=top;align=center;html=1;fontSize=12;fontStyle=0;aspect=fixed;pointerEvents=1;shape=mxgraph.aws4.rds_instance;" parent="1" vertex="1">
          <mxGeometry x="151" y="920" width="78" height="78" as="geometry" />
        </mxCell>
        <mxCell id="W36dBCYrXXzjvsI2Zu5R-14" style="edgeStyle=orthogonalEdgeStyle;rounded=0;orthogonalLoop=1;jettySize=auto;html=1;exitX=1;exitY=0.5;exitDx=0;exitDy=0;entryX=0.008;entryY=0.4;entryDx=0;entryDy=0;entryPerimeter=0;" edge="1" parent="1" source="6pZVVGDxnzAvVJNCNEGO-10" target="W36dBCYrXXzjvsI2Zu5R-5">
          <mxGeometry relative="1" as="geometry" />
        </mxCell>
        <mxCell id="W36dBCYrXXzjvsI2Zu5R-18" style="edgeStyle=orthogonalEdgeStyle;rounded=0;orthogonalLoop=1;jettySize=auto;html=1;exitX=0.5;exitY=1;exitDx=0;exitDy=0;entryX=0.5;entryY=0;entryDx=0;entryDy=0;" edge="1" parent="1" source="6pZVVGDxnzAvVJNCNEGO-10" target="W36dBCYrXXzjvsI2Zu5R-1">
          <mxGeometry relative="1" as="geometry" />
        </mxCell>
        <mxCell id="6pZVVGDxnzAvVJNCNEGO-10" value="Lógica para generar data de archivos" style="rounded=1;whiteSpace=wrap;html=1;dashed=1;" parent="1" vertex="1">
          <mxGeometry x="260" y="1020" width="120" height="60" as="geometry" />
        </mxCell>
        <mxCell id="6pZVVGDxnzAvVJNCNEGO-13" value="Lambda&#xa;Function" style="outlineConnect=0;fontColor=#232F3E;gradientColor=none;strokeColor=#232F3E;fillColor=#ffffff;dashed=0;verticalLabelPosition=bottom;verticalAlign=top;align=center;html=1;fontSize=12;fontStyle=0;aspect=fixed;shape=mxgraph.aws4.resourceIcon;resIcon=mxgraph.aws4.lambda_function;rounded=1;" parent="1" vertex="1">
          <mxGeometry x="161" y="1020" width="60" height="60" as="geometry" />
        </mxCell>
        <mxCell id="W36dBCYrXXzjvsI2Zu5R-19" style="edgeStyle=orthogonalEdgeStyle;rounded=0;orthogonalLoop=1;jettySize=auto;html=1;exitX=0.5;exitY=1;exitDx=0;exitDy=0;entryX=0.5;entryY=0;entryDx=0;entryDy=0;" edge="1" parent="1" source="W36dBCYrXXzjvsI2Zu5R-1" target="W36dBCYrXXzjvsI2Zu5R-2">
          <mxGeometry relative="1" as="geometry" />
        </mxCell>
        <mxCell id="W36dBCYrXXzjvsI2Zu5R-22" style="edgeStyle=orthogonalEdgeStyle;rounded=0;orthogonalLoop=1;jettySize=auto;html=1;exitX=1;exitY=0.5;exitDx=0;exitDy=0;entryX=0.5;entryY=0;entryDx=0;entryDy=0;" edge="1" parent="1" source="W36dBCYrXXzjvsI2Zu5R-1" target="W36dBCYrXXzjvsI2Zu5R-21">
          <mxGeometry relative="1" as="geometry" />
        </mxCell>
        <mxCell id="W36dBCYrXXzjvsI2Zu5R-1" value="Proceso de envio de archivos" style="rounded=1;whiteSpace=wrap;html=1;dashed=1;" vertex="1" parent="1">
          <mxGeometry x="260" y="1140" width="120" height="60" as="geometry" />
        </mxCell>
        <mxCell id="W36dBCYrXXzjvsI2Zu5R-20" style="edgeStyle=orthogonalEdgeStyle;rounded=0;orthogonalLoop=1;jettySize=auto;html=1;exitX=0.5;exitY=1;exitDx=0;exitDy=0;entryX=0;entryY=0;entryDx=0;entryDy=0;" edge="1" parent="1" source="W36dBCYrXXzjvsI2Zu5R-2" target="W36dBCYrXXzjvsI2Zu5R-10">
          <mxGeometry relative="1" as="geometry" />
        </mxCell>
        <mxCell id="W36dBCYrXXzjvsI2Zu5R-2" value="Notificación exitosa via email" style="rounded=1;whiteSpace=wrap;html=1;dashed=1;" vertex="1" parent="1">
          <mxGeometry x="130" y="1240" width="120" height="60" as="geometry" />
        </mxCell>
        <mxCell id="W36dBCYrXXzjvsI2Zu5R-3" value="Amazon SNS" style="outlineConnect=0;fontColor=#232F3E;gradientColor=none;strokeColor=#ffffff;fillColor=#232F3E;dashed=0;verticalLabelPosition=middle;verticalAlign=bottom;align=center;html=1;whiteSpace=wrap;fontSize=10;fontStyle=1;spacing=3;shape=mxgraph.aws4.productIcon;prIcon=mxgraph.aws4.sns;" vertex="1" parent="1">
          <mxGeometry x="91" y="1310" width="80" height="100" as="geometry" />
        </mxCell>
        <mxCell id="W36dBCYrXXzjvsI2Zu5R-13" style="edgeStyle=orthogonalEdgeStyle;rounded=0;orthogonalLoop=1;jettySize=auto;html=1;exitX=1;exitY=0.5;exitDx=0;exitDy=0;entryX=1;entryY=0.5;entryDx=0;entryDy=0;" edge="1" parent="1" source="W36dBCYrXXzjvsI2Zu5R-4" target="W36dBCYrXXzjvsI2Zu5R-10">
          <mxGeometry relative="1" as="geometry">
            <Array as="points">
              <mxPoint x="721" y="959" />
              <mxPoint x="721" y="1410" />
            </Array>
          </mxGeometry>
        </mxCell>
        <mxCell id="W36dBCYrXXzjvsI2Zu5R-4" value="Error al guardar en bd" style="rounded=1;whiteSpace=wrap;html=1;dashed=1;" vertex="1" parent="1">
          <mxGeometry x="461" y="929" width="160" height="60" as="geometry" />
        </mxCell>
        <mxCell id="W36dBCYrXXzjvsI2Zu5R-15" style="edgeStyle=orthogonalEdgeStyle;rounded=0;orthogonalLoop=1;jettySize=auto;html=1;exitX=1;exitY=0.5;exitDx=0;exitDy=0;" edge="1" parent="1" source="W36dBCYrXXzjvsI2Zu5R-5" target="W36dBCYrXXzjvsI2Zu5R-6">
          <mxGeometry relative="1" as="geometry" />
        </mxCell>
        <mxCell id="W36dBCYrXXzjvsI2Zu5R-5" value="Error al generar data" style="rounded=1;whiteSpace=wrap;html=1;dashed=1;" vertex="1" parent="1">
          <mxGeometry x="431" y="1050" width="120" height="60" as="geometry" />
        </mxCell>
        <mxCell id="W36dBCYrXXzjvsI2Zu5R-16" style="edgeStyle=orthogonalEdgeStyle;rounded=0;orthogonalLoop=1;jettySize=auto;html=1;exitX=0.5;exitY=1;exitDx=0;exitDy=0;entryX=1;entryY=0;entryDx=0;entryDy=0;" edge="1" parent="1" source="W36dBCYrXXzjvsI2Zu5R-6" target="W36dBCYrXXzjvsI2Zu5R-10">
          <mxGeometry relative="1" as="geometry">
            <Array as="points">
              <mxPoint x="621" y="1230" />
              <mxPoint x="561" y="1230" />
              <mxPoint x="561" y="1330" />
              <mxPoint x="429" y="1330" />
            </Array>
          </mxGeometry>
        </mxCell>
        <mxCell id="W36dBCYrXXzjvsI2Zu5R-6" value="Eliminar info de bd" style="rounded=1;whiteSpace=wrap;html=1;dashed=1;" vertex="1" parent="1">
          <mxGeometry x="561" y="1140" width="120" height="60" as="geometry" />
        </mxCell>
        <mxCell id="W36dBCYrXXzjvsI2Zu5R-10" value="Fin" style="ellipse;whiteSpace=wrap;html=1;aspect=fixed;" vertex="1" parent="1">
          <mxGeometry x="361" y="1370" width="80" height="80" as="geometry" />
        </mxCell>
        <mxCell id="W36dBCYrXXzjvsI2Zu5R-23" style="edgeStyle=orthogonalEdgeStyle;rounded=0;orthogonalLoop=1;jettySize=auto;html=1;exitX=1;exitY=0.5;exitDx=0;exitDy=0;entryX=0;entryY=0.5;entryDx=0;entryDy=0;" edge="1" parent="1" source="W36dBCYrXXzjvsI2Zu5R-21" target="W36dBCYrXXzjvsI2Zu5R-6">
          <mxGeometry relative="1" as="geometry" />
        </mxCell>
        <mxCell id="W36dBCYrXXzjvsI2Zu5R-21" value="Error al procesar envio de archivos" style="rounded=1;whiteSpace=wrap;html=1;dashed=1;" vertex="1" parent="1">
          <mxGeometry x="368" y="1220" width="120" height="60" as="geometry" />
        </mxCell>
        <mxCell id="W36dBCYrXXzjvsI2Zu5R-27" value="AWS Step Functions" style="outlineConnect=0;fontColor=#232F3E;gradientColor=none;strokeColor=#ffffff;fillColor=#232F3E;dashed=0;verticalLabelPosition=middle;verticalAlign=bottom;align=center;html=1;whiteSpace=wrap;fontSize=10;fontStyle=1;spacing=3;shape=mxgraph.aws4.productIcon;prIcon=mxgraph.aws4.step_functions;" vertex="1" parent="1">
          <mxGeometry x="323" y="580" width="80" height="120" as="geometry" />
        </mxCell>
        <mxCell id="W36dBCYrXXzjvsI2Zu5R-30" value="Lambda&#xa;Function" style="outlineConnect=0;fontColor=#232F3E;gradientColor=none;strokeColor=#232F3E;fillColor=#ffffff;dashed=0;verticalLabelPosition=bottom;verticalAlign=top;align=center;html=1;fontSize=12;fontStyle=0;aspect=fixed;shape=mxgraph.aws4.resourceIcon;resIcon=mxgraph.aws4.lambda_function;rounded=1;" vertex="1" parent="1">
          <mxGeometry x="631" y="1210" width="60" height="60" as="geometry" />
        </mxCell>
        <mxCell id="W36dBCYrXXzjvsI2Zu5R-32" style="edgeStyle=orthogonalEdgeStyle;rounded=0;orthogonalLoop=1;jettySize=auto;html=1;exitX=1;exitY=0.5;exitDx=0;exitDy=0;" edge="1" parent="1" source="W36dBCYrXXzjvsI2Zu5R-31" target="W36dBCYrXXzjvsI2Zu5R-33">
          <mxGeometry relative="1" as="geometry">
            <mxPoint x="303" y="349" as="targetPoint" />
          </mxGeometry>
        </mxCell>
        <mxCell id="W36dBCYrXXzjvsI2Zu5R-31" value="" style="aspect=fixed;perimeter=ellipsePerimeter;html=1;align=center;shadow=0;dashed=0;spacingTop=3;image;image=img/lib/active_directory/user.svg;" vertex="1" parent="1">
          <mxGeometry x="121" y="290" width="30" height="81.08" as="geometry" />
        </mxCell>
        <mxCell id="W36dBCYrXXzjvsI2Zu5R-35" style="edgeStyle=orthogonalEdgeStyle;rounded=0;orthogonalLoop=1;jettySize=auto;html=1;" edge="1" parent="1" source="W36dBCYrXXzjvsI2Zu5R-33" target="W36dBCYrXXzjvsI2Zu5R-34">
          <mxGeometry relative="1" as="geometry" />
        </mxCell>
        <mxCell id="W36dBCYrXXzjvsI2Zu5R-33" value="Amazon API Gateway" style="outlineConnect=0;fontColor=#232F3E;gradientColor=none;strokeColor=#ffffff;fillColor=#232F3E;dashed=0;verticalLabelPosition=middle;verticalAlign=bottom;align=center;html=1;whiteSpace=wrap;fontSize=10;fontStyle=1;spacing=3;shape=mxgraph.aws4.productIcon;prIcon=mxgraph.aws4.api_gateway;" vertex="1" parent="1">
          <mxGeometry x="323" y="300" width="80" height="110" as="geometry" />
        </mxCell>
        <mxCell id="W36dBCYrXXzjvsI2Zu5R-39" style="edgeStyle=orthogonalEdgeStyle;rounded=0;orthogonalLoop=1;jettySize=auto;html=1;" edge="1" parent="1" source="W36dBCYrXXzjvsI2Zu5R-34" target="W36dBCYrXXzjvsI2Zu5R-38">
          <mxGeometry relative="1" as="geometry" />
        </mxCell>
        <mxCell id="W36dBCYrXXzjvsI2Zu5R-41" style="edgeStyle=orthogonalEdgeStyle;rounded=0;orthogonalLoop=1;jettySize=auto;html=1;" edge="1" parent="1" source="W36dBCYrXXzjvsI2Zu5R-34" target="W36dBCYrXXzjvsI2Zu5R-40">
          <mxGeometry relative="1" as="geometry" />
        </mxCell>
        <mxCell id="W36dBCYrXXzjvsI2Zu5R-34" value="Lambda&lt;br&gt;Function&amp;nbsp;&lt;br&gt;para guardar en bd" style="outlineConnect=0;fontColor=#232F3E;gradientColor=none;strokeColor=#232F3E;fillColor=#ffffff;dashed=0;verticalLabelPosition=bottom;verticalAlign=top;align=center;html=1;fontSize=12;fontStyle=0;aspect=fixed;shape=mxgraph.aws4.resourceIcon;resIcon=mxgraph.aws4.lambda_function;rounded=1;" vertex="1" parent="1">
          <mxGeometry x="488" y="300" width="70" height="70" as="geometry" />
        </mxCell>
        <mxCell id="W36dBCYrXXzjvsI2Zu5R-38" value="" style="outlineConnect=0;fontColor=#232F3E;gradientColor=none;fillColor=#3334B9;strokeColor=none;dashed=0;verticalLabelPosition=bottom;verticalAlign=top;align=center;html=1;fontSize=12;fontStyle=0;aspect=fixed;pointerEvents=1;shape=mxgraph.aws4.rds_instance;" vertex="1" parent="1">
          <mxGeometry x="565" y="460" width="78" height="78" as="geometry" />
        </mxCell>
        <mxCell id="W36dBCYrXXzjvsI2Zu5R-43" value="" style="edgeStyle=orthogonalEdgeStyle;rounded=0;orthogonalLoop=1;jettySize=auto;html=1;" edge="1" parent="1" source="W36dBCYrXXzjvsI2Zu5R-40" target="W36dBCYrXXzjvsI2Zu5R-42">
          <mxGeometry relative="1" as="geometry" />
        </mxCell>
        <mxCell id="W36dBCYrXXzjvsI2Zu5R-40" value="Lambda&lt;br&gt;Function&amp;nbsp;&lt;br&gt;para generar data de archivos" style="outlineConnect=0;fontColor=#232F3E;gradientColor=none;strokeColor=#232F3E;fillColor=#ffffff;dashed=0;verticalLabelPosition=bottom;verticalAlign=top;align=center;html=1;fontSize=12;fontStyle=0;aspect=fixed;shape=mxgraph.aws4.resourceIcon;resIcon=mxgraph.aws4.lambda_function;rounded=1;" vertex="1" parent="1">
          <mxGeometry x="695" y="310" width="70" height="70" as="geometry" />
        </mxCell>
        <mxCell id="W36dBCYrXXzjvsI2Zu5R-47" value="" style="edgeStyle=orthogonalEdgeStyle;rounded=0;orthogonalLoop=1;jettySize=auto;html=1;" edge="1" parent="1" source="W36dBCYrXXzjvsI2Zu5R-42" target="W36dBCYrXXzjvsI2Zu5R-46">
          <mxGeometry relative="1" as="geometry" />
        </mxCell>
        <mxCell id="W36dBCYrXXzjvsI2Zu5R-42" value="Lambda&lt;br&gt;Function&amp;nbsp;&lt;br&gt;para enviar archivos" style="outlineConnect=0;fontColor=#232F3E;gradientColor=none;strokeColor=#232F3E;fillColor=#ffffff;dashed=0;verticalLabelPosition=bottom;verticalAlign=top;align=center;html=1;fontSize=12;fontStyle=0;aspect=fixed;shape=mxgraph.aws4.resourceIcon;resIcon=mxgraph.aws4.lambda_function;rounded=1;" vertex="1" parent="1">
          <mxGeometry x="875" y="310" width="70" height="70" as="geometry" />
        </mxCell>
        <mxCell id="W36dBCYrXXzjvsI2Zu5R-46" value="Lambda&lt;br&gt;Function&amp;nbsp;&lt;br&gt;para enviar notificaciones" style="outlineConnect=0;fontColor=#232F3E;gradientColor=none;strokeColor=#232F3E;fillColor=#ffffff;dashed=0;verticalLabelPosition=bottom;verticalAlign=top;align=center;html=1;fontSize=12;fontStyle=0;aspect=fixed;shape=mxgraph.aws4.resourceIcon;resIcon=mxgraph.aws4.lambda_function;rounded=1;" vertex="1" parent="1">
          <mxGeometry x="955" y="450" width="70" height="70" as="geometry" />
        </mxCell>
      </root>
    </mxGraphModel>
  </diagram>
</mxfile>
